<?xml version="1.0" encoding="UTF-8" standalone="no"?> <svg xmlns="http://www.w3.org/2000/svg" viewBox="0 0 64 64"><g id="Layer_30" data-name="Layer 30"><path d="M19.31,54.79c-6.06.34-10-5.39-10-11.33a1,1,0,0,0-2,0c-.11,7.06,4.9,13.75,12.07,13.32A1,1,0,0,0,19.31,54.79Z"/><path d="M56.1,31.05h0c-1.38-1.3-1.23-3.16-1.25-4.88a10.89,10.89,0,0,0-10.22-9.82,10.89,10.89,0,0,0-10.17,9.82c0,1.72.13,3.57-1.26,4.88A17.58,17.58,0,0,0,32,32.44c-1.16-1.4-2.64-2.73-2.42-4.72a13.05,13.05,0,0,0,0-1.55,10.8,10.8,0,0,0-4.81-8,6.82,6.82,0,0,0,.87-.41c2.71-1.56,3.54-5,3.58-5.15a1,1,0,0,0-.69-1.18c-.14-.05-3.53-1.06-6.24.5a5.56,5.56,0,0,0-.88.62A12.16,12.16,0,0,1,32.52,5.2a1,1,0,0,0,0-2,14.17,14.17,0,0,0-12.9,8.36C18,6.11,11,5.15,9.21,5.28a1,1,0,0,0-1,.9c-.34,2.73.43,9.66,6.65,11.41a11,11,0,0,0-5.72,8.6c0,1.78.13,3.53-1.25,4.86C-2.18,41.14,4.18,61.57,19.37,60.78a14.7,14.7,0,0,0,12.65-6,14.75,14.75,0,0,0,12.64,6C59.84,61.55,66.16,41.14,56.1,31.05ZM23.26,13.61a5.93,5.93,0,0,1,3.65-.52A5.09,5.09,0,0,1,21,16.5,6,6,0,0,1,23.26,13.61ZM10.19,7.33c5.31.4,8.28,3.58,8.24,8.93v0C13.08,15.9,10.13,12.67,10.19,7.33Zm9.23,51.45C6,59.62.47,41.29,9.35,32.43c1.68-1.63,1.89-3.87,1.81-6.1a8.84,8.84,0,0,1,8.18-8,8.82,8.82,0,0,1,8.24,9.27c-.3,2.73,1.67,4.61,3.23,6.58-3.42,5.49-3.25,13.4,0,18.86A12.78,12.78,0,0,1,19.42,58.78Zm34.8-3.49a12.55,12.55,0,0,1-9.61,3.49C32.49,59.57,26.52,44,32.84,34.71a15.69,15.69,0,0,1,1.8-2.28c1.69-1.63,1.88-3.91,1.81-6.1a8.82,8.82,0,0,1,8.18-8,8.82,8.82,0,0,1,8.22,8c-.07,2.19.13,4.48,1.81,6.1C60.68,38.32,60.24,49.79,54.22,55.29Z"/><path d="M44.65,33.66a11,11,0,0,0-11,11c.6,14.62,21.43,14.62,22,0A11,11,0,0,0,44.65,33.66Zm0,20a9,9,0,0,1-9-9c.47-12,17.56-11.94,18,0A9,9,0,0,1,44.65,53.69Z"/></g></svg>