<?xml version="1.0" encoding="UTF-8" standalone="no"?> <svg width="64" height="64" viewBox="0 0 64 64" fill="none" xmlns="http://www.w3.org/2000/svg">
<path d="M43.6 16.4C41.78 14.87 39.52 14.03 37.1 14L35.05 9.92C35.02 9.84 35 9.75 35 9.66C35 9.3 35.3 9 35.66 9H43C44.65 9 46 7.65 46 6V5C46 3.35 44.65 2 43 2H34.13C30.75 2 28 4.75 28 8.13C28 9.9 27.65 11.62 26.95 13.25L26.63 14.01C24.34 14.1 22.21 14.91 20.47 16.34C19.61 16.12 18.73 16 17.84 16C14.87 16 12.03 17.27 10.06 19.5C8.08 21.72 7.15 24.69 7.5 27.64L10.42 52.12C10.95 56.61 14.77 60 19.3 60C20.74 60 22.15 59.65 23.42 58.99C25.78 60.88 28.77 62 32 62C35.27 62 38.3 60.85 40.68 58.91C41.98 59.63 43.44 60 44.95 60C49.48 60 53.29 56.61 53.83 52.12L56.74 27.64C57.09 24.69 56.16 21.72 54.19 19.5C51.59 16.57 47.42 15.32 43.6 16.4ZM19.29 58C15.78 58 12.82 55.37 12.4 51.88L9.49 27.4C9.21 25.02 9.96 22.62 11.55 20.83C13.35 18.79 16.11 17.77 18.79 18.07C17.24 20.06 16.49 22.52 16.66 25.08L18.22 49.09C18.43 52.34 19.77 55.27 21.84 57.51C21.03 57.83 20.17 58 19.29 58ZM39.9 56.94C39.14 57.64 38.28 58.24 37.35 58.71C37.77 57.9 38 56.97 38 56C38 55.45 37.55 55 37 55C36.45 55 36 55.45 36 56C36 58.21 34.21 60 32 60C29.79 60 28 58.21 28 56C28 55.45 27.55 55 27 55C26.45 55 26 55.45 26 56C26 56.97 26.23 57.9 26.65 58.71C25.76 58.26 24.94 57.7 24.21 57.04C21.93 55.04 20.43 52.18 20.22 48.96L18.65 24.95C18.5 22.61 19.3 20.37 20.91 18.66C21.07 18.48 21.24 18.32 21.42 18.16C22.96 16.76 24.93 16 27.04 16H27.11C25.81 17.27 25 19.04 25 21C25 21.55 25.45 22 26 22C26.55 22 27 21.55 27 21C27 18.24 29.24 16 32 16C34.76 16 37 18.24 37 21C37 21.55 37.45 22 38 22C38.55 22 39 21.55 39 21C39 19.04 38.19 17.27 36.89 16H36.96C39.09 16 41.08 16.77 42.62 18.21C42.65 18.23 42.67 18.25 42.69 18.28C42.83 18.39 42.96 18.52 43.09 18.66C44.7 20.37 45.5 22.61 45.35 24.95L43.78 48.96C43.58 52.13 42.12 54.95 39.9 56.94ZM54.75 27.4L51.84 51.88C51.42 55.37 48.46 58 44.94 58C44 58 43.08 57.81 42.23 57.45C44.26 55.21 45.57 52.31 45.78 49.09L47.34 25.08C47.51 22.53 46.76 20.09 45.23 18.1C48 17.71 50.84 18.73 52.69 20.83C54.29 22.62 55.04 25.02 54.75 27.4Z" fill="black"/>
<path d="M37.77 29C37.25 29.01 36.76 29.42 36.74 29.97L36.51 37.97C36.5 38.52 36.93 38.98 37.49 39C37.5 39 37.5 39 37.51 39C38.05 39 38.5 38.57 38.51 38.03L38.74 30.03C38.76 29.48 38.32 29.02 37.77 29Z" fill="black"/>
<path d="M26.23 29C25.68 29.02 25.24 29.48 25.26 30.03L25.74 47.03C25.76 47.57 26.2 48 26.74 48C26.75 48 26.76 48 26.77 48C27.32 47.98 27.76 47.52 27.74 46.97L27.26 29.97C27.24 29.42 26.76 29.01 26.23 29Z" fill="black"/>
</svg>
