<?xml version="1.0" encoding="UTF-8"?>
<svg width="752pt" height="752pt" version="1.1" viewBox="0 0 752 752" xmlns="http://www.w3.org/2000/svg">
 <g>
  <path d="m476.18 301.14c-3.9453-1.2305-8.0156-1.3789-11.977-0.70703l4.0703-13.059c4.2383-13.609-3.3828-28.133-16.992-32.367-4.4258-1.3828-9.0195-1.4453-13.418-0.43359 0.15625-11.152-6.9688-21.574-18.145-25.055-6.5938-2.0547-13.594-1.418-19.707 1.7891-3.8555 2.0234-6.9688 4.9922-9.332 8.5117-3.0352-3.2891-6.8203-5.8164-11.207-7.1875-13.617-4.2266-28.129 3.3906-32.367 16.996l-21.445 68.844c-4.6133-6.8125-11.457-12.184-19.906-14.812-7.4102-2.3086-15.328 1.8438-17.637 9.2578l-28.617 91.867c-4.207 13.508-20.547 82.312 71.031 110.87 0.019532 0.003906 0.035156 0.015625 0.050782 0.023437 17.906 5.5742 33.141 8.0039 46.168 8 57.188 0 71.781-46.832 82.082-79.895l34.348-110.27c4.2305-13.613-3.3906-28.137-17-32.371zm3.4258 28.141-34.348 110.27c-15.598 50.078-33.656 86.484-110.46 62.551-0.011719-0.003906-0.023438-0.003906-0.035157-0.007812-76.711-23.914-66.629-77.293-61.707-93.086l28.465-91.793c12.32 3.8438 19.223 16.984 15.395 29.305l-11 35.312c-1.1016 3.5391 0.72266 7.2539 4.082 8.6445 0.18359 0.078126 0.35547 0.17969 0.54688 0.24219 1.3242 0.42969 32.398 11.055 26.457 54.496-0.53125 3.8867 2.1914 7.4688 6.0781 8 3.8633 0.50391 7.4648-2.1875 8-6.0781 5.7656-42.191-17.82-60.551-29.75-67.023l2.3281-7.4688 6.8203-21.887c0.003906-0.007812 0.003906-0.015624 0.007813-0.023437l30.18-96.883c1.9062-6.1289 8.4453-9.5625 14.578-7.6602 2.9688 0.92969 5.4023 2.957 6.8477 5.707 1.4453 2.7578 1.7305 5.9062 0.80859 8.875l-25.121 80.637c-0.29297 0.9375-0.37891 1.8867-0.28906 2.8047 0.26953 2.7539 2.1523 5.2148 4.957 6.0938 0.39453 0.12109 0.79297 0.1875 1.1875 0.24219 3.3672 0.45312 6.6641-1.5586 7.707-4.9141l29.562-94.906c0.92578-2.9727 2.9492-5.4023 5.7031-6.8477 2.75-1.4414 5.9062-1.7383 8.875-0.80859 6.1289 1.9102 9.5625 8.4531 7.6523 14.582l-29.562 94.906c-1.168 3.7461 0.92578 7.7266 4.668 8.8945 0.03125 0.007813 0.058594 0.003907 0.089844 0.015625 0.042968 0.015625 0.078124 0.039063 0.12109 0.050782 3.75 1.1836 7.7266-0.92188 8.8945-4.668l25.125-80.637c0.92578-2.9727 2.9492-5.4023 5.7031-6.8477 2.75-1.4492 5.9102-1.7383 8.875-0.80859 6.1289 1.9102 9.5625 8.4531 7.6523 14.582l-31.461 100.99c-1.168 3.7461 0.92578 7.7266 4.668 8.8945 0.70703 0.22266 1.4141 0.32422 2.1172 0.32422 3.0273 0 5.832-1.9453 6.7812-4.9883l4.4688-14.348c0.003906-0.007812 0.003906-0.011719 0.007812-0.019531l16.086-51.641c0.92578-2.9688 2.9492-5.4023 5.7031-6.8477 2.7539-1.4492 5.9062-1.7383 8.875-0.80859 6.1328 1.9062 9.5664 8.4492 7.6562 14.578z"/>
  <path d="m278.28 259.44c3.25-2.1719 4.1289-6.5664 1.9648-9.832-2.1641-3.2617-6.5781-4.1484-9.8477-1.9883-1.2344 0.82422-30.547 20.777-47.418 74.938-16.871 54.16-4.0781 87.23-3.5234 88.613 1.1133 2.7734 3.7773 4.4648 6.5977 4.4648 0.87891 0 1.7695-0.16016 2.6367-0.50781 3.6406-1.457 5.4102-5.5898 3.9531-9.2344-0.11719-0.29297-11.484-29.715 3.8984-79.102 15.195-48.781 41.297-67.047 41.738-67.352z"/>
  <path d="m225.21 261.95c2.4688-3.0508 2-7.5234-1.0508-9.9961-3.0508-2.4688-7.5234-1.9961-9.9883 1.0508-12.473 15.402-22.73 35.305-29.664 57.566-6.7031 21.52-9.5469 42.215-8.4531 61.516 0.21094 3.7773 3.3477 6.7031 7.0859 6.7031 0.13672 0 0.27344-0.003907 0.41016-0.007813 3.918-0.22266 6.9102-3.5781 6.6914-7.4961-0.99609-17.594 1.6406-36.598 7.8359-56.484 8.0859-25.98 19.219-43.078 27.133-52.852z"/>
  <path d="m532.55 329.28c-1.4609-3.6406-5.5781-5.4102-9.2344-3.9531-3.6406 1.457-5.4102 5.5898-3.9531 9.2344 0.11719 0.29297 11.484 29.715-3.8984 79.102-15.191 48.773-41.293 67.035-41.738 67.344-3.25 2.1719-4.1289 6.5664-1.9648 9.832 1.3672 2.0586 3.625 3.1719 5.9258 3.1719 1.3477 0 2.7148-0.38281 3.9219-1.1836 1.2344-0.82422 30.547-20.777 47.414-74.934 16.871-54.164 4.0781-87.23 3.5273-88.613z"/>
  <path d="m575.95 368.36c-0.22266-3.918-3.6484-6.8281-7.4961-6.6914-3.918 0.22266-6.9102 3.5781-6.6914 7.4961 0.99609 17.594-1.6406 36.598-7.8359 56.484-8.0938 25.977-19.227 43.074-27.137 52.848-2.4688 3.0508-2 7.5234 1.0508 9.9961 1.3164 1.0625 2.8945 1.582 4.4648 1.582 2.0703 0 4.1211-0.90234 5.5234-2.6328 12.473-15.402 22.73-35.305 29.664-57.566 6.707-21.52 9.5508-42.215 8.457-61.516z"/>
 </g>
</svg>
