<svg viewBox="0 0 209 559" fill="none" xmlns="http://www.w3.org/2000/svg">
<path d="M153.736 87.2501L156.93 88.1728C173.098 92.7875 176.891 107.815 174.56 126.399C174.638 129.399 175.118 132.303 175.998 135.109C187.891 164.294 181.679 166.05 188.704 190.7C188.802 191.001 188.801 191.201 188.799 191.501C191.367 195.919 190.091 234.911 187.82 259.096C187.916 259.597 187.913 259.997 187.81 260.496C186.847 269.289 186.655 268.288 187.733 271.296C188.812 274.303 193.001 289.933 193.095 290.834C193.285 292.235 193.275 293.635 193.066 294.934C192.235 299.328 191.396 304.722 189.593 305.21C188.574 307.903 186.961 309.691 185.958 310.184C183.536 313.267 182.822 315.162 181.825 314.755C180.828 314.348 180.437 313.145 180.844 312.148C180.844 312.148 180.844 312.148 180.844 312.048C181.254 310.751 180.746 311.747 179.936 313.241C178.923 315.034 178.01 316.928 177.307 317.323C174.419 315.602 176.345 311.916 178.065 309.128C179.076 307.535 177.562 309.525 175.741 312.512C174.122 315.2 172.505 317.589 172.107 317.286C168.326 314.659 173.181 306.793 173.988 305.899C173.906 303.298 173.924 300.799 174.042 298.199C173.254 296.494 172.675 293.59 172.305 289.287C171.893 290.984 171.282 292.58 170.671 294.175C169.764 295.169 172.201 303.986 165.401 303.938C165.425 300.538 165.459 295.838 165.481 292.639C165.5 290.039 166.347 283.344 166.366 280.744C166.384 278.145 172.232 271.386 172.534 271.088C172.763 266.989 172.593 262.788 172.222 258.685C172.223 258.585 172.224 258.385 172.325 258.286C171.094 248.477 168.065 238.455 166.009 232.241C163.953 226.026 160.239 213.899 161 205.305C160.902 205.004 160.805 204.603 160.907 204.304C160.826 201.603 161.146 198.805 161.965 196.211C154.158 182.956 149.865 167.925 149.674 152.523C147.197 163.306 139.898 177.254 139.84 185.554C139.769 195.554 142.712 203.575 142.665 210.175C142.637 214.175 141.497 219.767 139.245 227.151C143.188 235.179 159.414 273.895 161.884 306.313C164.263 337.631 164.714 358.635 161.362 380.012C168.693 389.864 171.576 420.485 166.342 453.449C164.355 465.735 166.766 492.453 168.969 506.069C171.173 519.685 156.073 519.678 150.801 515.64C147.817 513.319 143.066 506.385 145.2 501.7C145.071 491.599 141.89 460.776 134.046 438.619C129.93 426.79 130.266 407.592 130.84 397.096C130.745 396.495 130.549 395.894 130.453 395.293C129.294 389.585 130.006 387.79 130.13 384.49C126.892 375.667 118.4 360.407 115.295 346.984C112.676 335.565 110.267 322.648 107.87 308.231L105.37 308.113C104.443 311.907 103.716 315.801 103.187 319.798C102.423 328.893 103.515 344.101 89.523 385.303C89.4819 391.103 91.2769 391.815 90.5273 398.81C90.3125 400.909 89.9983 402.906 89.4834 405.003C92.3948 417.524 95.2459 438.545 86.0115 457.48C79.9217 470.137 76.3957 487.912 78.4269 497.627C80.9949 502.145 79.722 512.436 77.0036 515.017C72.0719 519.482 53.1929 516.449 55.5927 502.365C57.9926 488.282 58.1435 466.982 54.2619 450.254C50.7669 435.429 52.0923 417.738 55.3268 398.761C55.3318 398.061 55.3367 397.361 55.3424 396.561C55.3672 393.061 55.4899 389.862 55.7111 386.863C54.0636 379.451 51.9076 373.236 49.7741 349.72C48.6592 337.712 50.13 327.722 49.9101 316.42C50.9701 279.727 57.7809 235.874 61.1425 227.198L61.3425 227.199C60.8716 223.096 60.6013 218.894 60.5304 214.793C60.5665 209.693 63.7444 198.715 64.8166 188.523C65.6704 180.929 61.3279 172.798 58.4889 164.177C57.4124 174.97 52.0346 185.932 45.0718 194.783C52.5349 228.237 39.5311 242.845 35.7434 269.319C36.2399 269.822 36.6363 270.325 37.0328 270.828C41.293 276.458 41.9405 283.863 39.1768 292.844C40.5555 295.853 41.5435 297.561 42.1392 298.165C43.8292 299.577 45.2356 298.687 45.7037 303.19C44.2073 302.68 42.5116 302.067 41.0159 301.457C44.2995 303.78 45.2831 306.087 44.1683 308.179L39.7861 305.648C40.879 306.656 41.5698 307.961 41.7599 309.362C41.6499 310.762 41.2407 312.059 40.5323 313.254L36.4742 307.325L31.1451 297.287L34.182 306.209C36.2621 309.023 37.3444 311.531 37.5302 313.532C37.716 315.534 37.0075 316.729 35.2062 316.916C31.6403 312.091 29.4616 309.075 28.6687 308.07C26.595 304.355 24.8219 300.542 23.3503 296.532C22.6666 294.227 22.5063 288.625 22.8708 279.528C22.7835 277.727 22.797 275.827 23.0097 274.029C24.7216 258.24 16.3905 234.381 18.9654 209.698C19.3994 204.901 20.5334 200.109 22.2652 195.621C22.6943 191.524 25.1325 186.141 24.9573 182.64C23.4145 146.328 31.9661 153.189 31.5887 135.886C31.2113 118.583 30.1928 107.075 36.8522 98.7223C41.9988 92.1586 53.6254 88.4409 60.7288 87.9912C62.1365 86.9011 63.7429 86.0125 65.3485 85.2238C70.064 83.0572 74.978 81.092 79.8907 79.3267C85.8458 71.5687 84.7593 69.661 84.8563 55.9613C84.9548 42.0617 119.91 48.5095 119.868 54.4094C119.829 59.9092 117.041 72.3898 123.999 78.2392" fill="url(#paint0_linear_107_59)"/>
<path d="M178.852 296.531L179.891 305.139" stroke="#F29353" stroke-width="1.14" stroke-linecap="round"/>
<path d="M183.852 296.57L184.179 306.872L182.762 309.162" stroke="#F29353" stroke-width="1.14" stroke-linecap="round"/>
<path d="M189.67 293.609L189.399 303.607L187.468 307.993" stroke="#F29353" stroke-width="1.14" stroke-linecap="round"/>
<path d="M173.378 291.99L172.311 287.383L171.184 291.175" stroke="#F29353" stroke-width="1.14" stroke-linecap="round"/>
<path d="M173.553 267.797L172.425 271.689" stroke="#F29353" stroke-width="1.14" stroke-linecap="round"/>
<path d="M151.462 139.235C151.04 142.332 152.111 146.44 154.877 151.359" stroke="#EE8B48" stroke-width="1.14" stroke-linecap="round"/>
<path d="M167.533 186.25C165.513 189.036 163.991 192.125 163.068 195.419" stroke="#F29353" stroke-width="1.14" stroke-linecap="round"/>
<path d="M62.8756 391.614C61.4338 397.504 62.1005 402.209 64.7749 405.828C67.4494 409.447 68.8047 415.757 68.6409 424.756" stroke="#F08944" stroke-width="1.14" stroke-linecap="round"/>
<path d="M83.3781 391.158C84.9292 398.069 84.4937 403.066 81.9733 405.948" stroke="#F08944" stroke-width="1.14" stroke-linecap="round"/>
<path d="M63.2945 149.313C58.2166 146.177 55.9741 138.061 54.3748 137.95C52.7756 137.838 50.5409 142.722 47.3183 145.9" stroke="#EE8B48" stroke-width="1.14" stroke-linecap="round"/>
<path d="M55.9359 143.061C55.9976 148.462 54.8601 153.754 52.7254 158.639" stroke="#EE8B48" stroke-width="1.14" stroke-linecap="round"/>
<path d="M57.0469 141.672C60.888 149.999 67.7708 152.448 79.6705 152.532C91.5702 152.617 100.579 151.381 101.346 141.986" stroke="#EE8B48" stroke-width="1.14" stroke-linecap="round"/>
<path d="M142.287 149.864C147.409 146.8 149.766 138.716 151.367 138.628C152.968 138.539 155.133 143.455 158.31 146.677" stroke="#EE8B48" stroke-width="1.14" stroke-linecap="round"/>
<path d="M148.643 142.314C144.684 150.586 137.767 152.937 125.867 152.853C113.968 152.768 104.977 151.405 104.344 142" stroke="#EE8B48" stroke-width="1.14" stroke-linecap="round"/>
<path d="M121.312 76.2188C121.693 79.0215 122.374 81.7264 123.354 84.4334" stroke="#F89451" stroke-width="1.14" stroke-linecap="round"/>
<path d="M82.6078 77.0469C82.4915 79.3461 82.0752 81.6432 81.4596 83.8389" stroke="#F89451" stroke-width="1.14" stroke-linecap="round"/>
<path d="M134.192 389.82C133.949 395.819 135.217 400.328 138.097 403.248C140.976 406.169 143.035 411.984 144.473 420.794" stroke="#F08944" stroke-width="1.14" stroke-linecap="round"/>
<path d="M154.581 390.965C155.431 398.071 154.497 402.865 151.678 405.545" stroke="#F08944" stroke-width="1.14" stroke-linecap="round"/>
<path fill-rule="evenodd" clip-rule="evenodd" d="M43.5922 544.979C44.7546 550.287 49.229 553.919 56.0182 555.467C62.8074 557.015 75.0106 556.602 78.8282 554.129C82.6458 551.656 90.1087 542.809 79.7089 528.634C82.6704 519.955 87.3164 513.488 79.4888 503.232C75.9358 510.707 64.9623 506.929 56.8852 503.672C54.9902 502.959 50.8762 519.03 49.5217 526.721C44.8488 536.988 41.9489 536.967 43.5922 544.979Z" fill="#C6C6C6"/>
<path fill-rule="evenodd" clip-rule="evenodd" d="M61.2933 501.709C64.4067 499.831 68.4052 500.06 71.2888 502.38C72.0846 502.986 73.3675 505.395 75.3717 504.809C78.478 503.931 78.2007 500.729 79.3085 499.637C80.4162 498.545 83.4573 506.866 80.6022 514.646C77.747 522.426 83.5625 534.368 83.5625 534.368C83.5625 534.368 86.3583 549.088 75.955 549.514C72.9536 549.693 73.0678 547.694 64.4645 548.133C59.2625 548.396 60.3405 551.504 52.5605 548.649C44.7806 545.793 42.8267 539.279 44.35 535.99C45.9748 532.501 49.0172 526.523 50.7604 520.435C51.0312 510.437 52.8794 503.65 56.1048 500.072C56.1906 502.073 57.5821 503.283 58.2821 503.288C60.4813 503.404 60.4891 502.304 61.2933 501.709Z" fill="black"/>
<path fill-rule="evenodd" clip-rule="evenodd" d="M57.4226 511.68L69.8904 516.268L59.8474 522.297L70.5146 526.973L58.5092 527.688L70.1521 521.67L59.5857 516.895L71.4293 510.779L57.4226 511.68Z" stroke="white" stroke-width="1.07" stroke-linecap="round" stroke-linejoin="round"/>
<path fill-rule="evenodd" clip-rule="evenodd" d="M181.384 545.956C180.346 551.349 175.92 555.018 169.208 556.67C162.496 558.323 150.197 558.236 146.314 555.808C142.43 553.48 134.792 544.726 144.994 530.398C141.855 521.776 137.099 515.442 144.674 504.995C148.421 512.422 159.25 508.399 167.274 504.955C169.18 504.169 173.567 520.2 175.113 527.811C180.04 538.047 182.941 537.967 181.384 545.956Z" fill="#C6C6C6"/>
<path fill-rule="evenodd" clip-rule="evenodd" d="M162.889 503.024C159.701 501.201 155.699 501.573 152.882 503.953C152.077 504.647 150.861 506.938 148.864 506.424C145.77 505.602 146.894 502.21 145.801 501.202C144.708 500.195 140.848 508.668 143.793 516.389C146.839 524.11 141.253 536.171 141.253 536.171C141.253 536.171 138.748 550.954 149.247 551.128C152.247 551.149 152.161 549.249 160.659 549.509C165.858 549.646 164.836 552.839 172.657 549.794C180.479 546.749 182.126 540.161 180.549 536.95C178.873 533.438 175.715 527.515 173.758 521.501C173.229 511.497 171.277 504.683 168.001 501.26C167.887 503.259 166.578 504.55 165.978 504.545C163.776 504.73 163.684 503.629 162.889 503.024Z" fill="black"/>
<path fill-rule="evenodd" clip-rule="evenodd" d="M166.918 512.951L154.584 517.763L164.642 523.635L154.107 528.56L166.204 529.046L154.345 523.162L164.88 518.236L152.922 512.352L166.918 512.951Z" stroke="white" stroke-width="1.07" stroke-linecap="round" stroke-linejoin="round"/>
<g opacity="0.42" filter="url(#filter0_f_107_59)">
<path fill-rule="evenodd" clip-rule="evenodd" d="M86.429 59.669C86.6864 65.6709 87.8773 81.0798 94.1523 84.6243C100.427 88.1689 107.828 88.1213 111.652 84.7483C115.476 81.3753 119.258 69.8018 119.439 58.3028C120.495 50.5101 83.8829 52.0507 86.429 59.669Z" fill="#915D2E" fill-opacity="0.7"/>
</g>
<path fill-rule="evenodd" clip-rule="evenodd" d="M82.9159 61.6477C83.2684 68.3503 91.2052 77.3068 94.486 80.0301C97.7667 82.7534 106.359 83.8143 110.186 80.1413C114.012 76.4684 117.442 72.1926 118.26 69.6983C119.077 67.204 121.616 61.7219 122.028 60.1247C124.593 65.043 134.45 42.9123 125.839 44.4514C125.881 38.5515 126.583 24.1561 118.628 17.6996C110.674 11.2431 100.282 10.0694 89.3459 15.0921C78.4101 20.1147 76.3336 30.9003 78.7315 45.3176C80.7279 45.8318 71.243 43.6645 74.8735 53.4905C77.3373 58.6081 77.3047 63.208 82.9159 61.6477Z" fill="#FFD4AB"/>
<path d="M101.188 79.5781L103.487 79.5944" stroke="#EA833E" stroke-width="1.14" stroke-linecap="round"/>
<path d="M127.011 47.9594C123.493 50.4346 121.68 52.3218 121.67 53.7217" stroke="#EA833E" stroke-width="1.14" stroke-linecap="round"/>
<path d="M124.387 51.3394L124.37 53.7394L121.644 57.5202" stroke="#EA833E" stroke-width="1.14" stroke-linecap="round"/>
<path d="M76.2031 49.2031C78.1988 49.8173 79.7874 51.4286 80.3733 53.4328" stroke="#EA833E" stroke-width="1.14" stroke-linecap="round"/>
<path d="M78.1875 51.0156L78.6599 54.9191L81.1435 57.2367" stroke="#EA833E" stroke-width="1.14" stroke-linecap="round"/>
<path opacity="0.75" fill-rule="evenodd" clip-rule="evenodd" d="M139.082 227.416C125.266 236.486 67.3233 234.949 60.8005 227.321C56.6121 210.666 63.3358 200.643 63.9868 186.907C64.2939 180.426 59.9965 174.601 58.6707 164.933C57.4715 159.694 56.8848 155.256 56.9105 151.62C63.43 144.722 66.7412 134.003 66.8442 119.464C66.9931 98.4437 63.0319 93.2879 60.6784 87.7576C60.1281 86.7511 62.9753 85.0937 66.1233 83.8508C69.7537 82.4174 73.6129 80.349 74.1271 81.1666C74.1137 83.0563 81.4992 110.33 101.792 110.474C122.085 110.618 128.444 106.009 134.065 81.4018C133.839 80.6928 136.523 81.3061 141.015 82.5404C145.508 83.7748 148.937 84.9451 148.037 85.504C146.637 86.0748 146.079 90.174 142.559 116.163C139.04 142.152 146.273 142.356 150.306 147.135C150.394 151.044 149.796 155.576 148.51 160.732C141.936 175.602 139.629 187.526 141.59 196.506C144.532 209.974 144.905 221.902 139.082 227.416Z" fill="#FFFAF9"/>
<path opacity="0.85" fill-rule="evenodd" clip-rule="evenodd" d="M104.142 322.813L105.12 313.318L107.641 313.298L108.56 322.845C128.608 323.059 142.726 321.996 150.916 319.654C157.388 317.803 161.494 312.812 163.233 304.68C158.951 280.464 154.938 262.995 151.194 252.273C147.537 241.801 141.743 227.168 139.243 227.15C102.048 237.269 67.5473 230.845 61.1409 227.197C59.1001 227.042 58.1826 234.037 56.7919 240.116C54.6339 249.55 49.9053 290.633 49.1395 307.167C49.0542 319.209 67.3882 324.425 104.142 322.813Z" fill="black"/>
<g filter="url(#filter1_d_107_59)">
<path d="M171.146 98C191.321 100.941 204 105.197 204 109.932C204 118.806 159.452 126 104.5 126C49.5477 126 5 118.806 5 109.932C5 105.383 16.7011 101.276 35.5071 98.3533" stroke="#E95D5C" stroke-width="2" stroke-linecap="round"/>
</g>
<g filter="url(#filter2_d_107_59)">
<path d="M141.849 179C153.609 181.941 161 186.197 161 190.932C161 199.806 135.033 207 103 207C70.9675 207 45 199.806 45 190.932C45 186.383 51.8207 182.276 62.783 179.353" stroke="#E95D5C" stroke-width="2" stroke-linecap="round"/>
</g>
<g filter="url(#filter3_d_107_59)">
<path d="M155.401 264C170.506 266.941 180 271.197 180 275.932C180 284.806 146.645 292 105.5 292C64.3548 292 31 284.806 31 275.932C31 271.383 39.7611 267.276 53.842 264.353" stroke="#E95D5C" stroke-width="2" stroke-linecap="round"/>
</g>
<path d="M124 44.5C124.301 41.7785 125 39.9105 123.5 34C121.645 29.031 117.556 25.5852 117.892 19.5858C114.706 17.0908 107.832 21.8399 100.952 22.8063C94.0728 23.7727 80.4992 20.0895 81.4992 31.0895C82.9992 39.2952 80.8312 39.8484 81.4993 46.5L78.9995 45.5C76.9996 43 73.075 30.5078 75.553 17.0688C78.0309 3.6297 106.83 -9.58536 120.201 13.9035C133.406 10.0076 126.81 41.4864 126.5 44.5H124Z" fill="black"/>
<defs>
<filter id="filter0_f_107_59" x="82.3047" y="49.1562" width="41.1562" height="42.125" filterUnits="userSpaceOnUse" color-interpolation-filters="sRGB">
<feFlood flood-opacity="0" result="BackgroundImageFix"/>
<feBlend mode="normal" in="SourceGraphic" in2="BackgroundImageFix" result="shape"/>
<feGaussianBlur stdDeviation="2" result="effect1_foregroundBlur_107_59"/>
</filter>
<filter id="filter1_d_107_59" x="0" y="97" width="209" height="38" filterUnits="userSpaceOnUse" color-interpolation-filters="sRGB">
<feFlood flood-opacity="0" result="BackgroundImageFix"/>
<feColorMatrix in="SourceAlpha" type="matrix" values="0 0 0 0 0 0 0 0 0 0 0 0 0 0 0 0 0 0 127 0" result="hardAlpha"/>
<feOffset dy="4"/>
<feGaussianBlur stdDeviation="2"/>
<feComposite in2="hardAlpha" operator="out"/>
<feColorMatrix type="matrix" values="0 0 0 0 0.913725 0 0 0 0 0.364706 0 0 0 0 0.360784 0 0 0 0.37 0"/>
<feBlend mode="normal" in2="BackgroundImageFix" result="effect1_dropShadow_107_59"/>
<feBlend mode="normal" in="SourceGraphic" in2="effect1_dropShadow_107_59" result="shape"/>
</filter>
<filter id="filter2_d_107_59" x="40" y="178" width="126" height="38" filterUnits="userSpaceOnUse" color-interpolation-filters="sRGB">
<feFlood flood-opacity="0" result="BackgroundImageFix"/>
<feColorMatrix in="SourceAlpha" type="matrix" values="0 0 0 0 0 0 0 0 0 0 0 0 0 0 0 0 0 0 127 0" result="hardAlpha"/>
<feOffset dy="4"/>
<feGaussianBlur stdDeviation="2"/>
<feComposite in2="hardAlpha" operator="out"/>
<feColorMatrix type="matrix" values="0 0 0 0 0.913725 0 0 0 0 0.364706 0 0 0 0 0.360784 0 0 0 0.37 0"/>
<feBlend mode="normal" in2="BackgroundImageFix" result="effect1_dropShadow_107_59"/>
<feBlend mode="normal" in="SourceGraphic" in2="effect1_dropShadow_107_59" result="shape"/>
</filter>
<filter id="filter3_d_107_59" x="26" y="263" width="159" height="38" filterUnits="userSpaceOnUse" color-interpolation-filters="sRGB">
<feFlood flood-opacity="0" result="BackgroundImageFix"/>
<feColorMatrix in="SourceAlpha" type="matrix" values="0 0 0 0 0 0 0 0 0 0 0 0 0 0 0 0 0 0 127 0" result="hardAlpha"/>
<feOffset dy="4"/>
<feGaussianBlur stdDeviation="2"/>
<feComposite in2="hardAlpha" operator="out"/>
<feColorMatrix type="matrix" values="0 0 0 0 0.913725 0 0 0 0 0.364706 0 0 0 0 0.360784 0 0 0 0.37 0"/>
<feBlend mode="normal" in2="BackgroundImageFix" result="effect1_dropShadow_107_59"/>
<feBlend mode="normal" in="SourceGraphic" in2="effect1_dropShadow_107_59" result="shape"/>
</filter>
<linearGradient id="paint0_linear_107_59" x1="106.295" y1="-23.2542" x2="127.805" y2="643.351" gradientUnits="userSpaceOnUse">
<stop stop-color="#FFD6A7"/>
<stop offset="0.49" stop-color="#FFCFB0"/>
<stop offset="1" stop-color="#FFB783"/>
</linearGradient>
</defs>
</svg>
