<?xml version="1.0" encoding="utf-8"?>
<!-- Generator: Adobe Illustrator 23.0.3, SVG Export Plug-In . SVG Version: 6.00 Build 0)  -->
<svg version="1.1" id="Layer_1" xmlns="http://www.w3.org/2000/svg" xmlns:xlink="http://www.w3.org/1999/xlink" x="0px" y="0px"
	 viewBox="0 0 512 512" style="enable-background:new 0 0 512 512;" xml:space="preserve">
<g>
	<path d="M367.56,178.7c-0.91-14.74-7.01-28.53-17.39-39.18c-10.6-10.87-24.58-17.36-39.61-18.45
		c-11.12-18.56-31.14-29.98-52.91-29.98c-18.02,0-34.82,7.7-46.56,21.24c-1.8-0.24-3.63-0.37-5.45-0.37
		c-13.38,0-25.65,6.4-33.3,17.23c-25.66,2.82-46.15,23.19-49.17,48.8c-17.68,9.85-28.54,28.23-28.54,48.63
		c0,29.72,23.4,54.07,52.73,55.61c5.46,3.66,20.33,14.27,33.87,29.89c21.99,25.35,30.38,51.36,24.96,77.32
		c-4.23,9.01-3.76,19.59-3.73,20.04c0.1,2.12,1.53,3.95,3.57,4.55c1.56,0.46,23.59,6.87,47.22,6.87
		c17.05-0.01,34.93-3.34,46.55-14.64c1.25-1.22,1.78-3,1.39-4.71c-0.19-0.81-0.44-1.82-0.73-3c-12.19-49.67-7.27-87.63,14.63-112.97
		c11.18,9.79,25.62,15.28,40.63,15.28c33.99,0,61.65-27.65,61.65-61.65C417.37,209.57,396.24,184.27,367.56,178.7z M283.87,345.99
		c-0.04,1.46-0.06,2.9-0.06,4.34c0,22.35,4.81,41.95,6.94,50.61c-21.11,17.11-65.25,7.74-78.22,4.49c0.21-3.22,0.89-8.06,2.91-12.13
		c0.18-0.37,0.32-0.76,0.41-1.17c6.29-29.05-3.13-59.05-27.24-86.76c-9.15-10.52-18.71-18.79-25.98-24.43
		c6.95-1.58,13.56-4.48,19.44-8.56c1.52,1.8,3.14,3.51,4.85,5.1c0.26,0.43,0.62,0.8,1.07,1.09c0.02,0.02,0.18,0.12,0.46,0.3
		c2.8,2.46,5.8,4.65,8.97,6.56c12.17,9.61,31.59,27.85,29.65,45.18c-0.01,0.08-0.02,0.17-0.03,0.26c-0.23,1.91,1.14,3.65,3.05,3.88
		c0.14,0.02,0.29,0.03,0.43,0.03c1.74,0,3.25-1.3,3.47-3.07c0.01-0.1,0.02-0.2,0.03-0.3c1.51-12.69,3.89-26.91,5.93-38.11
		c6.22-1.1,12.25-3.16,17.85-6.1c0.69,0.29,1.38,0.56,2.07,0.81c0.88,10.79,2.05,26.04,3.51,46.66c0.13,1.84,1.66,3.25,3.48,3.25
		c0.08,0,0.16,0,0.24-0.01c1.92-0.13,3.38-1.79,3.26-3.71c-0.88-13.88,3.97-29.66,9.28-42.35c0.58,0.02,1.16,0.03,1.75,0.03
		c6.4,0,12.69-0.98,18.68-2.89C289.93,304.65,284.5,323.74,283.87,345.99z M216.12,292.83c4.25,0.93,8.62,1.41,13.04,1.41
		c1.18,0,2.36-0.03,3.53-0.1c-0.96,5.31-1.98,11.19-2.93,17.23C226.36,304.63,221.37,298.32,216.12,292.83z M267.08,290.2
		c1.71,0.41,3.44,0.75,5.19,1.01c-1.49,3.71-2.93,7.65-4.2,11.73C267.71,298.19,267.37,293.95,267.08,290.2z M355.72,290.87
		c-12.64,0-24.79-4.65-34.18-12.93c-1.53-1.35-2.99-2.79-4.36-4.33c-0.72-0.8-1.64-1.32-2.62-1.54c-0.36-0.09-0.74-0.13-1.12-0.13
		c-0.98,0-1.97,0.29-2.83,0.88c-7.85,5.39-16.91,8.47-26.4,8.97h-0.01c-0.93,0.06-1.87,0.09-2.81,0.09c-1.66,0-3.3-0.08-4.93-0.23
		h-0.01c-3.5-0.33-6.91-1.01-10.24-2.03c-2.23-0.68-4.41-1.52-6.55-2.52c-0.23-0.11-0.47-0.2-0.71-0.26
		c-1.3-0.39-2.72-0.22-3.91,0.47c-4.09,2.38-8.5,4.17-13.08,5.33c-2.42,0.62-4.89,1.06-7.38,1.32c-1.8,0.19-3.61,0.29-5.42,0.29
		c-16.68,0-32.43-8.13-42.12-21.75c-0.81-1.14-2.06-1.88-3.44-2.06c-1.39-0.18-2.78,0.24-3.85,1.14
		c-8.19,6.91-18.6,10.71-29.33,10.74c0-0.01-0.01-0.01-0.01-0.01c-1.5-0.92-3.29-0.95-4.77-0.23c-23-2.34-41.01-21.83-41.01-45.45
		c0-17.52,9.76-33.22,25.48-40.99c1.6-0.79,2.66-2.37,2.78-4.15c1.51-22.78,19.83-41.06,42.61-42.52c1.62-0.11,3.08-0.99,3.93-2.37
		c5.66-9.16,15.46-14.63,26.21-14.63c2.16,0,4.32,0.23,6.43,0.68c1.86,0.39,3.78-0.3,4.96-1.8c9.87-12.55,24.68-19.75,40.62-19.75
		c19.04,0,36.48,10.43,45.52,27.21c0.85,1.58,2.48,2.58,4.27,2.63c28.17,0.75,50.23,23.43,50.23,51.63v0.39
		c-0.02,2.54,1.87,4.69,4.39,5c25.83,3.16,45.31,25.2,45.31,51.26C407.37,267.69,384.2,290.87,355.72,290.87z"/>
	<path d="M314.5,152.58c-12.38-5.96-24.41-6.69-24.92-6.71c-2.76-0.16-5.11,1.95-5.26,4.71c-0.16,2.75,1.95,5.11,4.7,5.28
		c1.68,0.1,41.12,2.81,42.62,37.47c0.12,2.69,2.33,4.78,4.99,4.78c0.07,0,0.15,0,0.22,0c2.76-0.12,4.9-2.45,4.78-5.21
		C340.84,174.69,331.46,160.75,314.5,152.58z"/>
	<path d="M139.61,185.08c-21.32,12.69-24.75,30.32-23.87,42.88c0.93,13.23,6.76,23.42,7.01,23.85c0.93,1.6,2.6,2.49,4.32,2.49
		c0.85,0,1.71-0.22,2.5-0.67c2.39-1.38,3.21-4.43,1.84-6.82c-0.79-1.38-18.95-33.92,13.32-53.13c2.37-1.41,3.15-4.48,1.74-6.85
		C145.05,184.44,141.98,183.66,139.61,185.08z"/>
	<path d="M206.19,131.14c-17.64-2.06-28.13,13.93-28.57,14.61c-1.49,2.32-0.82,5.39,1.49,6.89c0.84,0.54,1.78,0.8,2.71,0.8
		c1.64,0,3.24-0.8,4.2-2.27c0.08-0.11,7.63-11.42,19.01-10.1c2.75,0.32,5.23-1.65,5.54-4.39
		C210.9,133.94,208.94,131.46,206.19,131.14z"/>
</g>
</svg>
