<?xml version="1.0" encoding="UTF-8" standalone="no"?> <svg id="Glyph" xmlns="http://www.w3.org/2000/svg" viewBox="0 0 64 64"><path d="M46.78,9.216a16.932,16.932,0,0,0,.2,15.516,14.828,14.828,0,0,1,.818,12.2A10.967,10.967,0,0,1,38,26.012v-8A11.016,11.016,0,0,1,47.852,7.071Z"/><path d="M60,26.012a10.958,10.958,0,0,1-5.73,9.656,16.886,16.886,0,0,0-1.521-11.877,14.93,14.93,0,0,1-.18-13.681l1.037-2.075A11.038,11.038,0,0,1,60,18.012Z"/><path d="M33.318,39.881a14.127,14.127,0,0,0-9.033,9.275,12.047,12.047,0,0,1-6.412,7.418A8.861,8.861,0,0,1,18.6,44.843l4.661-4.661a8.9,8.9,0,0,1,11.623-.822Z"/><path d="M37.931,43.559a8.918,8.918,0,0,1-2.1,9.191l-4.661,4.662a8.853,8.853,0,0,1-8.409,2.346,14.075,14.075,0,0,0,5.771-7.69,12.124,12.124,0,0,1,7.753-7.959Z"/><path d="M15.555,10.318l7.4.839A10.172,10.172,0,0,1,31.978,21.22l-1.765-1.148a15.831,15.831,0,0,0-14.435-1.445,13.726,13.726,0,0,1-11.263-.5A10.139,10.139,0,0,1,15.555,10.318Z"/><path d="M16.1,24.186A13.827,13.827,0,0,1,28.7,25.448l1.754,1.14a10.2,10.2,0,0,1-9.8,4.777l-7.4-.839A10.137,10.137,0,0,1,5.049,24.4,15.779,15.779,0,0,0,16.1,24.186Z"/></svg>