<svg width="40" height="40" viewBox="0 0 41 41" fill="current" xmlns="http://www.w3.org/2000/svg">
<path d="M22.0671 6.96338L23.6118 5.41866C26.6453 2.38522 31.5837 2.31014 34.6347 5.3261C35.7907 6.47144 36.559 7.95014 36.8315 9.5545C37.104 11.1589 36.867 12.8083 36.154 14.2711C35.8119 14.9698 35.6967 15.758 35.8242 16.5254C35.952 17.2929 36.316 18.0013 36.8658 18.5517C37.8768 17.5384 38.6781 16.3358 39.2241 15.0127C39.7702 13.6895 40.0502 12.2718 40.0482 10.8404C40.0461 9.40908 39.7622 7.99213 39.2124 6.67057C38.6626 5.34898 37.8578 4.14868 36.844 3.13822C32.5779 -1.10386 25.6531 -1.01944 21.3989 3.23455L6.67509 17.958L5.46466 16.7476C2.37978 13.6627 2.36012 8.62013 5.49942 5.59008C6.66145 4.47194 8.1419 3.74203 9.73644 3.50109C11.331 3.26016 12.961 3.52008 14.4015 4.24497C15.059 4.5819 15.8061 4.70243 16.5362 4.58935C17.2663 4.47627 17.942 4.13537 18.4668 3.61532L18.5043 3.57798C18.516 3.56638 18.5253 3.55258 18.5316 3.53736C18.5379 3.52217 18.5412 3.50586 18.5412 3.48939C18.5412 3.47293 18.5379 3.45662 18.5316 3.44143C18.5253 3.42623 18.516 3.41243 18.5043 3.40081C16.4778 1.42519 13.7622 0.315486 10.932 0.306514C8.10181 0.297544 5.37915 1.39001 3.34014 3.35274C-1.0521 7.59283 -1.03641 14.6437 3.28055 18.9607L18 33.6801L16.4364 35.2437C13.403 38.2772 8.46433 38.3522 5.41361 35.3363C4.25758 34.191 3.48935 32.7122 3.21682 31.1079C2.9443 29.5036 3.18114 27.8542 3.89411 26.3913C4.23617 25.6925 4.35145 24.9044 4.22388 24.1371C4.09628 23.3696 3.73217 22.6611 3.18243 22.1107C2.17148 23.1241 1.37009 24.3266 0.824041 25.6496C0.277989 26.9729 -0.00201806 28.3905 1.09485e-05 29.822C0.00203997 31.2533 0.286065 32.6703 0.835867 33.9918C1.38567 35.3134 2.19047 36.5137 3.20428 37.5242C7.4702 41.7664 14.3951 41.6822 18.6493 37.428L33.3922 22.6849L34.6072 23.8999C37.6407 26.9334 37.7158 31.8718 34.6998 34.9225C33.5545 36.0788 32.0757 36.8468 30.4714 37.1196C28.8671 37.3921 27.2177 37.1551 25.7548 36.442C25.0559 36.0998 24.2673 35.9844 23.4996 36.1123C22.7319 36.24 22.0232 36.6045 21.4728 37.1547C22.4862 38.1657 23.6887 38.9672 25.0118 39.5132C26.335 40.0592 27.7526 40.3393 29.1841 40.3373C30.6154 40.3351 32.0324 40.0511 33.3539 39.5013C34.6756 38.9515 35.8759 38.1467 36.8863 37.1329C41.1286 32.867 41.0442 25.942 36.7902 21.688L22.0671 6.96338ZM20.198 31.4811L8.8737 20.1568L19.8683 9.16239L31.1926 20.4867L20.198 31.4811Z" />
</svg>
