<?xml version="1.0" encoding="UTF-8" standalone="no"?> <svg xmlns="http://www.w3.org/2000/svg" viewBox="0 0 64 64"><g id="peach"><path d="M40.79,17.75a14.06,14.06,0,0,0-7.68.62,14.71,14.71,0,0,0,.35-1.94A10.74,10.74,0,0,1,43.71,8.82a1,1,0,0,0,0-2,12.67,12.67,0,0,0-10.34,5.36,11.63,11.63,0,0,0-.54-2,15,15,0,0,0-6.1-7,1,1,0,0,0-.84-.07,1,1,0,0,0-.59.6,15,15,0,0,0,0,9.31,13.26,13.26,0,0,0,3.17,4.73,14,14,0,0,0-5.23.05C14.51,19.46,8.63,29,10.12,39,11.21,46.33,16.2,54.82,21.7,58.7A11.29,11.29,0,0,0,28.14,61a7.56,7.56,0,0,0,1.58-.16A8.4,8.4,0,0,0,32,60a8.47,8.47,0,0,0,2.29.81,7.47,7.47,0,0,0,1.57.16,11.27,11.27,0,0,0,6.44-2.3C47.81,54.81,52.79,46.32,53.88,39,55.37,29,49.49,19.46,40.79,17.75ZM27.15,12.27a12.44,12.44,0,0,1-.31-6.65A12.35,12.35,0,0,1,31,10.85h0a11.67,11.67,0,0,1,.52,5.28,11.47,11.47,0,0,0-.29,1.32A12.3,12.3,0,0,1,27.15,12.27Zm2.18,46.61c-2,.4-4.19-.21-6.47-1.81-5-3.55-9.76-11.63-10.77-18.41-1.32-8.94,3.84-17.44,11.51-18.95a12.08,12.08,0,0,1,6.83.62,29.77,29.77,0,0,0-.1,38.26A6,6,0,0,1,29.33,58.88ZM51.91,38.66c-1,6.78-5.73,14.86-10.76,18.4-2.28,1.61-4.46,2.22-6.47,1.82A6.71,6.71,0,0,1,32.52,58h-.05a27.8,27.8,0,0,1,.32-37.34,12.14,12.14,0,0,1,7.61-1C48.07,21.22,53.24,29.72,51.91,38.66Z"/></g></svg>