<?xml version="1.0" encoding="utf-8"?>
<!-- Generator: Adobe Illustrator 24.3.0, SVG Export Plug-In . SVG Version: 6.00 Build 0)  -->
<svg version="1.1" id="Layer_1" xmlns="http://www.w3.org/2000/svg" xmlns:xlink="http://www.w3.org/1999/xlink" x="0px" y="0px"
	 viewBox="0 0 64 64" enable-background="new 0 0 64 64" xml:space="preserve">
<path d="M61,39H45c-0.6,0-1,0.4-1,1v7c0,1.7,1.3,3,3,3v1h-7.2c0.1-0.3,0.2-0.6,0.2-1v-4.8c2.7-5.2,9.7-13.5,9.8-13.6
	c0.3-0.3,0.3-0.7,0.1-1.1S49.4,30,49,30h-5c-0.2,0-0.5,0.1-0.6,0.2l-4,3.3C39,32.6,38.6,31.8,38,31h0v-8c0-9.4-7.6-17-17-17
	S4,13.6,4,23v8h0c-1.3,1.7-2,3.7-2,6v13c0,0.5,0.1,0.9,0.3,1.3C2.1,51.5,2,51.7,2,52c0,2.8,2.2,5,5,5h50c2.8,0,5-2.2,5-5
	c0-0.6-0.4-1-1-1h-2v-1c1.7,0,3-1.3,3-3v-7C62,39.4,61.6,39,61,39z M44.4,32h2.5c-1.7,2.1-4.7,5.8-6.9,9.3V37c0-0.5,0-0.9-0.1-1.4
	L44.4,32z M21,8c8.3,0,15,6.7,15,15v6c-0.9-0.7-1.9-1.2-3-1.6c-0.2-2.6-1.9-4.9-4.4-5.8c-1.1-0.4-2.3-0.7-3.4-0.9
	C25.7,20,26,19,26,18c0-2.8-2.2-5-5-5s-5,2.2-5,5c0,1,0.3,2,0.8,2.8c-1.2,0.2-2.3,0.5-3.4,0.9C11,22.6,9.3,24.9,9,27.4
	c-1.1,0.3-2.1,0.9-3,1.6v-6C6,14.7,12.7,8,21,8z M21,21c-1.7,0-3-1.3-3-3s1.3-3,3-3s3,1.3,3,3S22.7,21,21,21z M18.8,22.5
	c0.7,0.3,1.4,0.5,2.2,0.5s1.5-0.2,2.2-0.5c1.6,0.2,3.2,0.5,4.7,1.1c1.5,0.6,2.7,1.9,3,3.5c-0.3,0-0.6,0-0.9,0H12c-0.3,0-0.6,0-0.9,0
	c0.3-1.6,1.4-2.9,3-3.5C15.6,23,17.2,22.7,18.8,22.5z M4,37c0-4.4,3.6-8,8-8h18c4.4,0,8,3.6,8,8v13c0,0.6-0.4,1-1,1H21l0.2-0.6
	c0.5-1.2,1.5-2.1,2.7-2.3l0,0c0.1,0,0.1,0,0.2,0c3.8-1.7,6.7-4.9,7.9-8.8l1.6-5.1c0.1-0.4,0-0.9-0.4-1.1c-0.3-0.3-0.8-0.3-1.2,0
	c-0.4,0.3-4.3,3-5.4,4.3c-2.6,2.9-3.6,7.3-3.9,9c-0.1,0-0.2,0.1-0.3,0.1c0.8-4.5-0.8-9.1-4.4-12.1l-3.8-3.2c-0.3-0.2-0.7-0.3-1-0.2
	c-0.3,0.1-0.6,0.4-0.6,0.8l-0.6,3.6c-0.9,5.8,2.2,11.4,7.5,13.7c-0.1,0.2-0.2,0.4-0.3,0.6L18.9,51H5c-0.6,0-1-0.4-1-1V37z
	 M20.7,45.4l-2.9-6.5L16,39.7l2.9,6.7c-3.6-2.3-5.5-6.4-4.8-10.8l0.3-1.8l2.5,2C19.7,38.2,21.1,41.8,20.7,45.4z M25.1,45.2
	c0.5-1.9,1.4-4.7,3.1-6.5c0.5-0.5,1.5-1.4,2.6-2.2l-0.7,2.2C29.3,41.3,27.5,43.7,25.1,45.2z M57,55H7c-1.3,0-2.4-0.8-2.8-2h55.7
	C59.4,54.2,58.3,55,57,55z M57,51h-8v-1h8V51z M60,47c0,0.6-0.4,1-1,1H47c-0.6,0-1-0.4-1-1v-6h14V47z"/>
<path d="M49.5,14c0.9-0.6,2.2-1.4,2.2-3h-2c0,0.5-0.4,0.7-1.2,1.3c-0.9,0.6-2.2,1.4-2.2,3s1.3,2.4,2.2,3c0.9,0.5,1.2,0.8,1.2,1.3
	c0,0.5-0.4,0.7-1.2,1.3c-0.9,0.6-2.2,1.4-2.2,3c0,1.6,1.3,2.4,2.2,3c0.9,0.5,1.2,0.8,1.2,1.3h2c0-1.6-1.3-2.4-2.2-3
	c-0.9-0.5-1.2-0.8-1.2-1.3s0.4-0.7,1.2-1.3c0.9-0.6,2.2-1.4,2.2-3s-1.3-2.4-2.2-3c-0.9-0.5-1.2-0.8-1.2-1.3
	C48.3,14.8,48.7,14.5,49.5,14z"/>
<path d="M57.5,14c0.9-0.6,2.2-1.4,2.2-3h-2c0,0.5-0.4,0.7-1.2,1.3c-0.9,0.6-2.2,1.4-2.2,3s1.3,2.4,2.2,3c0.9,0.5,1.2,0.8,1.2,1.3
	c0,0.5-0.4,0.7-1.2,1.3c-0.9,0.6-2.2,1.4-2.2,3c0,1.6,1.3,2.4,2.2,3c0.9,0.5,1.2,0.8,1.2,1.3h2c0-1.6-1.3-2.4-2.2-3
	c-0.9-0.5-1.2-0.8-1.2-1.3s0.4-0.7,1.2-1.3c0.9-0.6,2.2-1.4,2.2-3s-1.3-2.4-2.2-3c-0.9-0.5-1.2-0.8-1.2-1.3
	C56.3,14.8,56.7,14.5,57.5,14z"/>
</svg>
